<svg viewBox="0 0 100 100" xml:space="preserve" xmlns="http://www.w3.org/2000/svg"><circle cx="50" cy="50.001" fill="#ffffff" r="45" class="fill-003382"></circle><g clip-rule="evenodd" fill="#344767" fill-rule="evenodd" class="fill-ffffff"><path d="M51.059 48.854c.568.342 1.128.633 1.638.992 1.797 1.271 2.822 3.049 3.198 5.184.397 2.244.138 4.42-.964 6.449-1.016 1.869-2.568 3.154-4.489 4.014a12.96 12.96 0 0 1-5.18 1.152c-4.162.045-8.324.035-12.486.045-.08 0-.16-.014-.278-.023v-.334c0-9.965-.002-19.934.002-29.9.002-1.848 1.605-3.463 3.453-3.469 2.906-.01 5.812-.037 8.72.01 2.44.041 4.76.59 6.772 2.059 2.029 1.482 3.089 3.51 3.261 6.008.144 2.066-.278 3.994-1.516 5.68-.415.566-.953 1.043-1.447 1.549-.207.208-.444.381-.684.584zM39.062 60.907c.08.016.12.029.158.029 2.045-.004 4.094.049 6.137-.031 1.479-.059 2.715-.721 3.396-2.1.785-1.586.81-3.236-.002-4.82-.777-1.518-2.167-2.1-3.79-2.152-1.336-.041-2.675-.016-4.011-.006-.934.008-1.641.609-1.809 1.531a4.832 4.832 0 0 0-.076.875c-.006 2.115-.004 4.232-.004 6.35l.001.324zm.016-14.328c1.634 0 3.223.002 4.81 0 .225 0 .446.008.67-.012 1.182-.1 2.167-.559 2.829-1.582.604-.934.751-1.971.669-3.057-.144-1.877-1.393-3.209-3.266-3.352-1.24-.094-2.489-.08-3.732-.045-.822.023-1.541.344-1.819 1.209-.122.375-.164.791-.168 1.191-.018 1.771-.008 3.545-.006 5.316-.001.1.007.199.013.332zM59.383 62.985c-.004-2.209 1.797-4.006 4.021-4.01 2.284-.004 4.102 1.801 4.1 4.068-.002 2.143-1.855 4.006-3.99 4.01-2.312.005-4.127-1.782-4.131-4.068z"></path></g></svg>